<svg width="871.0" height="1766.0" version="1.1" xmlns="http://www.w3.org/2000/svg" xmlns:xlink="http://www.w3.org/1999/xlink">

<!-- Generator: Sequence Diagram - v1.8.6-(192) - http://www.macsequencediagram.com -->

<rect x="0.0" y="0.0" width="871.0" height="1766.0" style="fill:#ECECEC;fill-opacity:1.0;"/>
<g id="Diagram Title" class="TitleView">
	<text x="435.5" y="35.5" text-anchor="middle" alignment-baseline="middle" font-family="Helvetica Neue" font-size="17.0" font-weight="300" style="fill:#000000;fill-opacity:1.0;">Pennyworth Architecture</text>
</g>
<g id="Participant" class="ParticipantView">
	<rect x="61.0" y="135.0" width="117.0" height="61.0" rx="5.0" ry="5.0" style="fill:#D8D8D8;stroke:#979797;stroke-width:1.0;"/>
	<text x="119.5" y="165.5" text-anchor="middle" alignment-baseline="middle" font-family="Helvetica Neue" font-size="14.0" font-weight="300" style="fill:#000000;fill-opacity:1.0;">Alfred</text>
</g>
<g id="Participant" class="ParticipantView">
	<rect x="208.0" y="135.0" width="154.0" height="61.0" rx="5.0" ry="5.0" style="fill:#D8D8D8;stroke:#979797;stroke-width:1.0;"/>
	<text x="285.0" y="165.5" text-anchor="middle" alignment-baseline="middle" font-family="Helvetica Neue" font-size="14.0" font-weight="300" style="fill:#000000;fill-opacity:1.0;">Pennyworth</text>
</g>
<g id="Participant" class="ParticipantView">
	<rect x="382.0" y="135.0" width="114.0" height="61.0" rx="5.0" ry="5.0" style="fill:#D8D8D8;stroke:#979797;stroke-width:1.0;"/>
	<text x="439.0" y="165.5" text-anchor="middle" alignment-baseline="middle" font-family="Helvetica Neue" font-size="14.0" font-weight="300" style="fill:#000000;fill-opacity:1.0;">Ruby</text>
</g>
<g id="Participant" class="ParticipantView">
	<rect x="516.0" y="135.0" width="150.0" height="61.0" rx="5.0" ry="5.0" style="fill:#D8D8D8;stroke:#979797;stroke-width:1.0;"/>
	<text x="591.0" y="165.5" text-anchor="middle" alignment-baseline="middle" font-family="Helvetica Neue" font-size="14.0" font-weight="300" style="fill:#000000;fill-opacity:1.0;">RubyGems</text>
</g>
<g id="Participant" class="ParticipantView">
	<rect x="686.0" y="135.0" width="125.0" height="61.0" rx="5.0" ry="5.0" style="fill:#D8D8D8;stroke:#979797;stroke-width:1.0;"/>
	<text x="748.5" y="165.5" text-anchor="middle" alignment-baseline="middle" font-family="Helvetica Neue" font-size="14.0" font-weight="300" style="fill:#000000;fill-opacity:1.0;">GitHub</text>
</g>
<g id="Lifeline" class="LifelineView">
	<line x1="118.0" y1="196.0" x2="120.0" y2="1645.0" style="fill:none;stroke:#636363;stroke-opacity:1.0;stroke-width:1.0;" stroke-dasharray="20.0, 10.0"/>
</g>
<g id="Lifeline" class="LifelineView">
	<line x1="284.0" y1="196.0" x2="286.0" y2="1645.0" style="fill:none;stroke:#636363;stroke-opacity:1.0;stroke-width:1.0;" stroke-dasharray="20.0, 10.0"/>
</g>
<g id="Lifeline" class="LifelineView">
	<line x1="438.0" y1="196.0" x2="440.0" y2="1645.0" style="fill:none;stroke:#636363;stroke-opacity:1.0;stroke-width:1.0;" stroke-dasharray="20.0, 10.0"/>
</g>
<g id="Lifeline" class="LifelineView">
	<line x1="590.0" y1="196.0" x2="592.0" y2="1645.0" style="fill:none;stroke:#636363;stroke-opacity:1.0;stroke-width:1.0;" stroke-dasharray="20.0, 10.0"/>
</g>
<g id="Lifeline" class="LifelineView">
	<line x1="748.0" y1="196.0" x2="750.0" y2="1645.0" style="fill:none;stroke:#636363;stroke-opacity:1.0;stroke-width:1.0;" stroke-dasharray="20.0, 10.0"/>
</g>
<g id="Interaction Frame -     Native Ruby    " class="InteractionFrameView">
	<rect x="64.0" y="236.0" width="430.0" height="412.0" style="fill:#FFFF00;fill-opacity:0.05;"/>
	<path d="M 64.0,236.0 L 166.0,236.0 L 166.0,244.0 L 160.0,252.0 L 64.0,252.0" style="fill:#FFFFFF;fill-opacity:1.0;stroke:#BEBEB6;stroke-opacity:1.0;stroke-width:1.0;"/>
	<rect x="64.0" y="236.0" width="430.0" height="412.0" style="fill:none;stroke:#000000;stroke-opacity:1.0;stroke-width:1.0;"/>
	<text x="115.0" y="244.0" text-anchor="middle" alignment-baseline="middle" font-family="Helvetica" font-size="12.0" font-weight="700" style="fill:#000000;fill-opacity:1.0;">    Native Ruby    </text>
</g>
<g id="Interaction Frame -     RubyGems API    " class="InteractionFrameView">
	<rect x="64.0" y="721.0" width="582.0" height="392.0" style="fill:#FFFF00;fill-opacity:0.05;"/>
	<path d="M 64.0,721.0 L 182.0,721.0 L 182.0,729.0 L 176.0,737.0 L 64.0,737.0" style="fill:#FFFFFF;fill-opacity:1.0;stroke:#BEBEB6;stroke-opacity:1.0;stroke-width:1.0;"/>
	<rect x="64.0" y="721.0" width="582.0" height="392.0" style="fill:none;stroke:#000000;stroke-opacity:1.0;stroke-width:1.0;"/>
	<text x="123.0" y="729.0" text-anchor="middle" alignment-baseline="middle" font-family="Helvetica" font-size="12.0" font-weight="700" style="fill:#000000;fill-opacity:1.0;">    RubyGems API    </text>
</g>
<g id="Interaction Frame -     GitHub API    " class="InteractionFrameView">
	<rect x="64.0" y="1133.0" width="740.0" height="392.0" style="fill:#FFFF00;fill-opacity:0.05;"/>
	<path d="M 64.0,1133.0 L 159.0,1133.0 L 159.0,1141.0 L 153.0,1149.0 L 64.0,1149.0" style="fill:#FFFFFF;fill-opacity:1.0;stroke:#BEBEB6;stroke-opacity:1.0;stroke-width:1.0;"/>
	<rect x="64.0" y="1133.0" width="740.0" height="392.0" style="fill:none;stroke:#000000;stroke-opacity:1.0;stroke-width:1.0;"/>
	<text x="111.5" y="1141.0" text-anchor="middle" alignment-baseline="middle" font-family="Helvetica" font-size="12.0" font-weight="700" style="fill:#000000;fill-opacity:1.0;">    GitHub API    </text>
</g>
<g id="Signal" class="SignalMessageView">
	<text x="202.0" y="284.5" text-anchor="middle" alignment-baseline="middle" font-family="Helvetica" font-size="13.0" font-weight="400" style="fill:#000000;fill-opacity:1.0;">[1] User request</text>
</g>
<g id="Signal" class="SignalMessageView">
	<text x="362.0" y="329.5" text-anchor="middle" alignment-baseline="middle" font-family="Helvetica" font-size="13.0" font-weight="400" style="fill:#000000;fill-opacity:1.0;">[2] Process action</text>
</g>
<g id="Signal" class="SignalMessageView">
	<text x="362.0" y="374.5" text-anchor="middle" alignment-baseline="middle" font-family="Helvetica" font-size="13.0" font-weight="400" style="fill:#000000;fill-opacity:1.0;">[3] Answer records</text>
</g>
<g id="Signal" class="SignalMessageView">
	<text x="273.0" y="419.5" text-anchor="end" alignment-baseline="middle" font-family="Helvetica" font-size="13.0" font-weight="400" style="fill:#000000;fill-opacity:1.0;">[4] Load presenters</text>
</g>
<g id="Signal" class="SignalMessageView">
	<text x="273.0" y="515.5" text-anchor="end" alignment-baseline="middle" font-family="Helvetica" font-size="13.0" font-weight="400" style="fill:#000000;fill-opacity:1.0;">[5] Load serializers</text>
</g>
<g id="Signal" class="SignalMessageView">
	<text x="201.5" y="611.5" text-anchor="middle" alignment-baseline="middle" font-family="Helvetica" font-size="13.0" font-weight="400" style="fill:#000000;fill-opacity:1.0;">[6] Render script filter</text>
</g>
<g id="Signal" class="SignalMessageView">
	<text x="202.0" y="769.5" text-anchor="middle" alignment-baseline="middle" font-family="Helvetica" font-size="13.0" font-weight="400" style="fill:#000000;fill-opacity:1.0;">[7] User request</text>
</g>
<g id="Signal" class="SignalMessageView">
	<text x="273.0" y="814.5" text-anchor="end" alignment-baseline="middle" font-family="Helvetica" font-size="13.0" font-weight="400" style="fill:#000000;fill-opacity:1.0;">[8] Process action</text>
</g>
<g id="Signal" class="SignalMessageView">
	<text x="438.0" y="857.5" text-anchor="middle" alignment-baseline="middle" font-family="Helvetica" font-size="13.0" font-weight="400" style="fill:#000000;fill-opacity:1.0;">[9] API request</text>
</g>
<g id="Signal" class="SignalMessageView">
	<text x="438.0" y="902.5" text-anchor="middle" alignment-baseline="middle" font-family="Helvetica" font-size="13.0" font-weight="400" style="fill:#000000;fill-opacity:1.0;">[10] API response</text>
</g>
<g id="Signal" class="SignalMessageView">
	<text x="273.0" y="947.5" text-anchor="end" alignment-baseline="middle" font-family="Helvetica" font-size="13.0" font-weight="400" style="fill:#000000;fill-opacity:1.0;">[11] Load records</text>
</g>
<g id="Signal" class="SignalMessageView">
	<text x="273.0" y="990.5" text-anchor="end" alignment-baseline="middle" font-family="Helvetica" font-size="13.0" font-weight="400" style="fill:#000000;fill-opacity:1.0;">[12] Load presenters</text>
</g>
<g id="Signal" class="SignalMessageView">
	<text x="273.0" y="1033.5" text-anchor="end" alignment-baseline="middle" font-family="Helvetica" font-size="13.0" font-weight="400" style="fill:#000000;fill-opacity:1.0;">[13] Load serializers</text>
</g>
<g id="Signal" class="SignalMessageView">
	<text x="201.5" y="1076.5" text-anchor="middle" alignment-baseline="middle" font-family="Helvetica" font-size="13.0" font-weight="400" style="fill:#000000;fill-opacity:1.0;">[14] Render script filter</text>
</g>
<g id="Signal" class="SignalMessageView">
	<text x="202.0" y="1181.5" text-anchor="middle" alignment-baseline="middle" font-family="Helvetica" font-size="13.0" font-weight="400" style="fill:#000000;fill-opacity:1.0;">[15] User request</text>
</g>
<g id="Signal" class="SignalMessageView">
	<text x="273.0" y="1226.5" text-anchor="end" alignment-baseline="middle" font-family="Helvetica" font-size="13.0" font-weight="400" style="fill:#000000;fill-opacity:1.0;">[16] Process action</text>
</g>
<g id="Signal" class="SignalMessageView">
	<text x="517.0" y="1269.5" text-anchor="middle" alignment-baseline="middle" font-family="Helvetica" font-size="13.0" font-weight="400" style="fill:#000000;fill-opacity:1.0;">[17] API request</text>
</g>
<g id="Signal" class="SignalMessageView">
	<text x="517.0" y="1314.5" text-anchor="middle" alignment-baseline="middle" font-family="Helvetica" font-size="13.0" font-weight="400" style="fill:#000000;fill-opacity:1.0;">[18] API response</text>
</g>
<g id="Signal" class="SignalMessageView">
	<text x="273.0" y="1359.5" text-anchor="end" alignment-baseline="middle" font-family="Helvetica" font-size="13.0" font-weight="400" style="fill:#000000;fill-opacity:1.0;">[19] Load records</text>
</g>
<g id="Signal" class="SignalMessageView">
	<text x="273.0" y="1402.5" text-anchor="end" alignment-baseline="middle" font-family="Helvetica" font-size="13.0" font-weight="400" style="fill:#000000;fill-opacity:1.0;">[20] Load presenters</text>
</g>
<g id="Signal" class="SignalMessageView">
	<text x="273.0" y="1445.5" text-anchor="end" alignment-baseline="middle" font-family="Helvetica" font-size="13.0" font-weight="400" style="fill:#000000;fill-opacity:1.0;">[21] Load serializers</text>
</g>
<g id="Signal" class="SignalMessageView">
	<text x="202.0" y="1488.5" text-anchor="middle" alignment-baseline="middle" font-family="Helvetica" font-size="13.0" font-weight="400" style="fill:#000000;fill-opacity:1.0;">[22] Render script filter</text>
</g>
<g id="Signal line" class="SignalLineView">
	<path d="M 275.0,296.0 L 285.0,301.5 L 275.0,306.0 L 275.0, 296.0" style="fill:#000000;fill-opacity:1.0;"/>
	
	<line x1="119.0" y1="301.5" x2="275.0" y2="301.5" style="fill:none;stroke:#979797;stroke-opacity:1.0;stroke-width:1.0;"/>
</g>
<g id="Signal line" class="SignalLineView">
	<path d="M 429.0,341.0 L 439.0,346.5 L 429.0,351.0 L 429.0, 341.0" style="fill:#000000;fill-opacity:1.0;"/>
	
	<line x1="285.0" y1="346.5" x2="429.0" y2="346.5" style="fill:none;stroke:#979797;stroke-opacity:1.0;stroke-width:1.0;"/>
</g>
<g id="Signal line" class="SignalLineView">
	<path d="M 295.0,386.0 L 285.0,391.5 L 295.0,396.0 L 295.0, 386.0" style="fill:#000000;fill-opacity:1.0;"/>
	
	<line x1="295.0" y1="391.5" x2="439.0" y2="391.5" style="fill:none;stroke:#979797;stroke-opacity:1.0;stroke-width:1.0;"/>
</g>
<g id="Signal line" class="SignalLineView">
	<path d="M 295.0,429.0 L 284.5,433.5 L 295.0,439.0 L 295.0,429.0" style="fill:#000000;fill-opacity:1.0;"/>
	<line x1="285.5" y1="411.5" x2="324.5" y2="411.5" style="fill:none;stroke:#979797;stroke-opacity:1.0;stroke-width:1.0;"/>
	<line x1="324.5" y1="433.5" x2="295.0" y2="433.5" style="fill:none;stroke:#979797;stroke-opacity:1.0;stroke-width:1.0;"/>
	<path d="M 324.5,411.5 Q 334.5,411.5 334.5, 421.5 L 334.5 423.5 Q 334.5,433.5 324.5,433.5" style="fill:none;stroke:#979797;stroke-opacity:1.0;stroke-width:1.0;"/>
</g>
<g id="Signal line" class="SignalLineView">
	<path d="M 295.0,525.0 L 284.5,529.5 L 295.0,535.0 L 295.0,525.0" style="fill:#000000;fill-opacity:1.0;"/>
	<line x1="285.5" y1="507.5" x2="324.5" y2="507.5" style="fill:none;stroke:#979797;stroke-opacity:1.0;stroke-width:1.0;"/>
	<line x1="324.5" y1="529.5" x2="295.0" y2="529.5" style="fill:none;stroke:#979797;stroke-opacity:1.0;stroke-width:1.0;"/>
	<path d="M 324.5,507.5 Q 334.5,507.5 334.5, 517.5 L 334.5 519.5 Q 334.5,529.5 324.5,529.5" style="fill:none;stroke:#979797;stroke-opacity:1.0;stroke-width:1.0;"/>
</g>
<g id="Signal line" class="SignalLineView">
	<path d="M 129.0,623.0 L 119.0,628.5 L 129.0,633.0 L 129.0, 623.0" style="fill:#000000;fill-opacity:1.0;"/>
	
	<line x1="129.0" y1="628.5" x2="285.0" y2="628.5" style="fill:none;stroke:#979797;stroke-opacity:1.0;stroke-width:1.0;"/>
</g>
<g id="Signal line" class="SignalLineView">
	<path d="M 275.0,781.0 L 285.0,786.5 L 275.0,791.0 L 275.0, 781.0" style="fill:#000000;fill-opacity:1.0;"/>
	
	<line x1="119.0" y1="786.5" x2="275.0" y2="786.5" style="fill:none;stroke:#979797;stroke-opacity:1.0;stroke-width:1.0;"/>
</g>
<g id="Signal line" class="SignalLineView">
	<path d="M 295.0,824.0 L 284.5,828.5 L 295.0,834.0 L 295.0,824.0" style="fill:#000000;fill-opacity:1.0;"/>
	<line x1="285.5" y1="806.5" x2="324.5" y2="806.5" style="fill:none;stroke:#979797;stroke-opacity:1.0;stroke-width:1.0;"/>
	<line x1="324.5" y1="828.5" x2="295.0" y2="828.5" style="fill:none;stroke:#979797;stroke-opacity:1.0;stroke-width:1.0;"/>
	<path d="M 324.5,806.5 Q 334.5,806.5 334.5, 816.5 L 334.5 818.5 Q 334.5,828.5 324.5,828.5" style="fill:none;stroke:#979797;stroke-opacity:1.0;stroke-width:1.0;"/>
</g>
<g id="Signal line" class="SignalLineView">
	<path d="M 581.0,869.0 L 591.0,874.5 L 581.0,879.0 L 581.0, 869.0" style="fill:#000000;fill-opacity:1.0;"/>
	
	<line x1="285.0" y1="874.5" x2="581.0" y2="874.5" style="fill:none;stroke:#979797;stroke-opacity:1.0;stroke-width:1.0;"/>
</g>
<g id="Signal line" class="SignalLineView">
	<path d="M 295.0,914.0 L 285.0,919.5 L 295.0,924.0 L 295.0, 914.0" style="fill:#000000;fill-opacity:1.0;"/>
	
	<line x1="295.0" y1="919.5" x2="591.0" y2="919.5" style="fill:none;stroke:#979797;stroke-opacity:1.0;stroke-width:1.0;"/>
</g>
<g id="Signal line" class="SignalLineView">
	<path d="M 295.0,957.0 L 284.5,961.5 L 295.0,967.0 L 295.0,957.0" style="fill:#000000;fill-opacity:1.0;"/>
	<line x1="285.5" y1="939.5" x2="324.5" y2="939.5" style="fill:none;stroke:#979797;stroke-opacity:1.0;stroke-width:1.0;"/>
	<line x1="324.5" y1="961.5" x2="295.0" y2="961.5" style="fill:none;stroke:#979797;stroke-opacity:1.0;stroke-width:1.0;"/>
	<path d="M 324.5,939.5 Q 334.5,939.5 334.5, 949.5 L 334.5 951.5 Q 334.5,961.5 324.5,961.5" style="fill:none;stroke:#979797;stroke-opacity:1.0;stroke-width:1.0;"/>
</g>
<g id="Signal line" class="SignalLineView">
	<path d="M 295.0,1000.0 L 284.5,1004.5 L 295.0,1010.0 L 295.0,1000.0" style="fill:#000000;fill-opacity:1.0;"/>
	<line x1="285.5" y1="982.5" x2="324.5" y2="982.5" style="fill:none;stroke:#979797;stroke-opacity:1.0;stroke-width:1.0;"/>
	<line x1="324.5" y1="1004.5" x2="295.0" y2="1004.5" style="fill:none;stroke:#979797;stroke-opacity:1.0;stroke-width:1.0;"/>
	<path d="M 324.5,982.5 Q 334.5,982.5 334.5, 992.5 L 334.5 994.5 Q 334.5,1004.5 324.5,1004.5" style="fill:none;stroke:#979797;stroke-opacity:1.0;stroke-width:1.0;"/>
</g>
<g id="Signal line" class="SignalLineView">
	<path d="M 295.0,1043.0 L 284.5,1047.5 L 295.0,1053.0 L 295.0,1043.0" style="fill:#000000;fill-opacity:1.0;"/>
	<line x1="285.5" y1="1025.5" x2="324.5" y2="1025.5" style="fill:none;stroke:#979797;stroke-opacity:1.0;stroke-width:1.0;"/>
	<line x1="324.5" y1="1047.5" x2="295.0" y2="1047.5" style="fill:none;stroke:#979797;stroke-opacity:1.0;stroke-width:1.0;"/>
	<path d="M 324.5,1025.5 Q 334.5,1025.5 334.5, 1035.5 L 334.5 1037.5 Q 334.5,1047.5 324.5,1047.5" style="fill:none;stroke:#979797;stroke-opacity:1.0;stroke-width:1.0;"/>
</g>
<g id="Signal line" class="SignalLineView">
	<path d="M 129.0,1088.0 L 119.0,1093.5 L 129.0,1098.0 L 129.0, 1088.0" style="fill:#000000;fill-opacity:1.0;"/>
	
	<line x1="129.0" y1="1093.5" x2="285.0" y2="1093.5" style="fill:none;stroke:#979797;stroke-opacity:1.0;stroke-width:1.0;"/>
</g>
<g id="Signal line" class="SignalLineView">
	<path d="M 275.0,1193.0 L 285.0,1198.5 L 275.0,1203.0 L 275.0, 1193.0" style="fill:#000000;fill-opacity:1.0;"/>
	
	<line x1="119.0" y1="1198.5" x2="275.0" y2="1198.5" style="fill:none;stroke:#979797;stroke-opacity:1.0;stroke-width:1.0;"/>
</g>
<g id="Signal line" class="SignalLineView">
	<path d="M 295.0,1236.0 L 284.5,1240.5 L 295.0,1246.0 L 295.0,1236.0" style="fill:#000000;fill-opacity:1.0;"/>
	<line x1="285.5" y1="1218.5" x2="324.5" y2="1218.5" style="fill:none;stroke:#979797;stroke-opacity:1.0;stroke-width:1.0;"/>
	<line x1="324.5" y1="1240.5" x2="295.0" y2="1240.5" style="fill:none;stroke:#979797;stroke-opacity:1.0;stroke-width:1.0;"/>
	<path d="M 324.5,1218.5 Q 334.5,1218.5 334.5, 1228.5 L 334.5 1230.5 Q 334.5,1240.5 324.5,1240.5" style="fill:none;stroke:#979797;stroke-opacity:1.0;stroke-width:1.0;"/>
</g>
<g id="Signal line" class="SignalLineView">
	<path d="M 739.0,1281.0 L 749.0,1286.5 L 739.0,1291.0 L 739.0, 1281.0" style="fill:#000000;fill-opacity:1.0;"/>
	
	<line x1="285.0" y1="1286.5" x2="739.0" y2="1286.5" style="fill:none;stroke:#979797;stroke-opacity:1.0;stroke-width:1.0;"/>
</g>
<g id="Signal line" class="SignalLineView">
	<path d="M 295.0,1326.0 L 285.0,1331.5 L 295.0,1336.0 L 295.0, 1326.0" style="fill:#000000;fill-opacity:1.0;"/>
	
	<line x1="295.0" y1="1331.5" x2="749.0" y2="1331.5" style="fill:none;stroke:#979797;stroke-opacity:1.0;stroke-width:1.0;"/>
</g>
<g id="Signal line" class="SignalLineView">
	<path d="M 295.0,1369.0 L 284.5,1373.5 L 295.0,1379.0 L 295.0,1369.0" style="fill:#000000;fill-opacity:1.0;"/>
	<line x1="285.5" y1="1351.5" x2="324.5" y2="1351.5" style="fill:none;stroke:#979797;stroke-opacity:1.0;stroke-width:1.0;"/>
	<line x1="324.5" y1="1373.5" x2="295.0" y2="1373.5" style="fill:none;stroke:#979797;stroke-opacity:1.0;stroke-width:1.0;"/>
	<path d="M 324.5,1351.5 Q 334.5,1351.5 334.5, 1361.5 L 334.5 1363.5 Q 334.5,1373.5 324.5,1373.5" style="fill:none;stroke:#979797;stroke-opacity:1.0;stroke-width:1.0;"/>
</g>
<g id="Signal line" class="SignalLineView">
	<path d="M 295.0,1412.0 L 284.5,1416.5 L 295.0,1422.0 L 295.0,1412.0" style="fill:#000000;fill-opacity:1.0;"/>
	<line x1="285.5" y1="1394.5" x2="324.5" y2="1394.5" style="fill:none;stroke:#979797;stroke-opacity:1.0;stroke-width:1.0;"/>
	<line x1="324.5" y1="1416.5" x2="295.0" y2="1416.5" style="fill:none;stroke:#979797;stroke-opacity:1.0;stroke-width:1.0;"/>
	<path d="M 324.5,1394.5 Q 334.5,1394.5 334.5, 1404.5 L 334.5 1406.5 Q 334.5,1416.5 324.5,1416.5" style="fill:none;stroke:#979797;stroke-opacity:1.0;stroke-width:1.0;"/>
</g>
<g id="Signal line" class="SignalLineView">
	<path d="M 295.0,1455.0 L 284.5,1459.5 L 295.0,1465.0 L 295.0,1455.0" style="fill:#000000;fill-opacity:1.0;"/>
	<line x1="285.5" y1="1437.5" x2="324.5" y2="1437.5" style="fill:none;stroke:#979797;stroke-opacity:1.0;stroke-width:1.0;"/>
	<line x1="324.5" y1="1459.5" x2="295.0" y2="1459.5" style="fill:none;stroke:#979797;stroke-opacity:1.0;stroke-width:1.0;"/>
	<path d="M 324.5,1437.5 Q 334.5,1437.5 334.5, 1447.5 L 334.5 1449.5 Q 334.5,1459.5 324.5,1459.5" style="fill:none;stroke:#979797;stroke-opacity:1.0;stroke-width:1.0;"/>
</g>
<g id="Signal line" class="SignalLineView">
	<path d="M 129.0,1500.0 L 119.0,1505.5 L 129.0,1510.0 L 129.0, 1500.0" style="fill:#000000;fill-opacity:1.0;"/>
	
	<line x1="129.0" y1="1505.5" x2="285.0" y2="1505.5" style="fill:none;stroke:#979797;stroke-opacity:1.0;stroke-width:1.0;"/>
</g>
<g id="Note" class="NoteView">
	<rect x="226.0" y="444.0" width="118.0" height="33.0" rx="5.0" ry="5.0" style="fill:#FFCDAA;fill-opacity:1.0;stroke:#979797;stroke-opacity:1.0;stroke-width:1.0;"/>
	<text x="240.0" y="460.5" text-anchor="start" alignment-baseline="middle" font-family="Helvetica Neue" font-size="14.0" font-weight="300" style="fill:#000000;fill-opacity:1.0;">Injects record.</text>
</g>
<g id="Note" class="NoteView">
	<rect x="218.0" y="540.0" width="134.0" height="33.0" rx="5.0" ry="5.0" style="fill:#FFCDAA;fill-opacity:1.0;stroke:#979797;stroke-opacity:1.0;stroke-width:1.0;"/>
	<text x="232.0" y="556.5" text-anchor="start" alignment-baseline="middle" font-family="Helvetica Neue" font-size="14.0" font-weight="300" style="fill:#000000;fill-opacity:1.0;">Injects presenter.</text>
</g>
<g id="Note" class="NoteView">
	<rect x="191.0" y="668.0" width="188.0" height="33.0" rx="5.0" ry="5.0" style="fill:#FFCDAA;fill-opacity:1.0;stroke:#979797;stroke-opacity:1.0;stroke-width:1.0;"/>
	<text x="205.0" y="684.5" text-anchor="start" alignment-baseline="middle" font-family="Helvetica Neue" font-size="14.0" font-weight="300" style="fill:#000000;fill-opacity:1.0;">Answers JSON response.</text>
</g>

<!-- Generator: Sequence Diagram - v1.8.6-(192) - http://www.macsequencediagram.com -->

</svg>
